<?xml version="1.0"?>
<svg xmlns="http://www.w3.org/2000/svg" xmlns:xlink="http://www.w3.org/1999/xlink" version="1.1" id="Capa_1" x="0px" y="0px" viewBox="0 0 512 512" style="enable-background:new 0 0 512 512;" xml:space="preserve" width="512px" height="512px"><g><g>
	<g>
		<path d="M469.772,108.472h-59.929v-1.724c0-31-25.22-56.22-56.22-56.22s-56.22,25.22-56.22,56.22v1.724h-70.381    c-23.174,0-42.027,18.854-42.027,42.027v47.483h-63.029c-15.036,0-28.401,9.005-34.048,22.941    c-0.082,0.204-0.158,0.411-0.228,0.62L51.329,331.682c-0.33,0.196-0.751,0.428-1.275,0.69c-0.002,0.001-0.004,0.001-0.006,0.002    c-2.079,1.038-5.962,2.618-12.654,4.253c-21.898,5.347-37.193,24.828-37.193,47.377v52.039c0,17.424,14.175,31.6,31.599,31.6    l44.58,0.001C81.087,492.853,103.24,512,129.794,512c26.553,0,48.706-19.147,53.414-44.355l157.223,0.003    c4.708,25.207,26.86,44.352,53.413,44.352c26.552,0,48.704-19.144,53.413-44.351l28.311,0.001    c21.671,0,36.231-14.561,36.231-36.231V171.35C511.799,114.599,482.408,108.472,469.772,108.472z M317.403,106.748    c0-19.972,16.248-36.22,36.22-36.22c19.972,0,36.22,16.248,36.22,36.22v1.724h-72.44V106.748z M106.567,228.164    c2.634-6.195,8.646-10.182,15.398-10.182h63.029v113.339H72.51L106.567,228.164z M129.794,492    c-18.941,0-34.351-15.409-34.351-34.351c0-0.234,0.013-0.465,0.018-0.699c0.007-0.357,0.009-0.715,0.027-1.07    c0.003-0.056,0.01-0.111,0.013-0.167c1.008-18.043,16.004-32.415,34.293-32.415c16.55,0,30.404,11.767,33.637,27.373    c0.004,0.02,0.01,0.04,0.014,0.06c0.109,0.529,0.203,1.063,0.287,1.601c0.005,0.03,0.011,0.059,0.016,0.089    c0.06,0.391,0.104,0.786,0.15,1.181c0.021,0.18,0.05,0.357,0.068,0.537c0.031,0.308,0.048,0.621,0.071,0.931    c0.02,0.271,0.048,0.539,0.062,0.811c0.014,0.28,0.014,0.564,0.021,0.846c0.008,0.307,0.023,0.612,0.023,0.921    C164.145,476.591,148.735,492,129.794,492z M393.844,492c-18.941,0-34.351-15.409-34.351-34.351c0-0.447,0.017-0.891,0.034-1.334    c0.005-0.143,0.004-0.289,0.011-0.431c0.017-0.33,0.049-0.655,0.075-0.982c0.02-0.253,0.032-0.509,0.058-0.761    c0.011-0.107,0.029-0.212,0.04-0.318c0.116-1.044,0.273-2.076,0.481-3.089c0.006-0.03,0.014-0.059,0.021-0.089    c3.243-15.593,17.089-27.346,33.631-27.346c4.735,0,9.25,0.963,13.358,2.704c12.325,5.222,20.992,17.441,20.992,31.647    C428.194,476.591,412.785,492,393.844,492z M475.568,447.649l-28.295-0.001c-0.033-0.177-0.076-0.351-0.111-0.528    c-0.066-0.334-0.137-0.665-0.209-0.997c-0.111-0.51-0.228-1.018-0.352-1.523c-0.081-0.329-0.165-0.656-0.252-0.982    c-0.136-0.508-0.281-1.012-0.431-1.514c-0.094-0.312-0.186-0.625-0.284-0.935c-0.167-0.524-0.346-1.043-0.529-1.56    c-0.098-0.277-0.191-0.557-0.294-0.832c-0.222-0.598-0.459-1.189-0.702-1.776c-0.077-0.186-0.147-0.376-0.226-0.561    c-0.331-0.778-0.679-1.547-1.044-2.306c-0.046-0.095-0.096-0.186-0.142-0.28c-0.32-0.654-0.651-1.302-0.996-1.942    c-0.127-0.235-0.262-0.464-0.392-0.697c-0.276-0.494-0.555-0.986-0.847-1.471c-0.158-0.263-0.322-0.521-0.485-0.782    c-0.278-0.446-0.561-0.889-0.851-1.327c-0.178-0.268-0.359-0.532-0.542-0.796c-0.292-0.423-0.59-0.841-0.893-1.255    c-0.191-0.26-0.382-0.519-0.577-0.776c-0.315-0.414-0.638-0.822-0.964-1.226c-0.195-0.241-0.387-0.483-0.586-0.721    c-0.355-0.425-0.72-0.841-1.087-1.255c-0.182-0.204-0.359-0.413-0.544-0.614c-0.458-0.501-0.928-0.99-1.405-1.473    c-0.103-0.104-0.201-0.213-0.305-0.316c-0.589-0.588-1.192-1.163-1.808-1.724c-0.131-0.12-0.268-0.233-0.401-0.352    c-0.482-0.431-0.97-0.858-1.468-1.272c-0.218-0.182-0.443-0.356-0.664-0.534c-0.423-0.34-0.847-0.678-1.279-1.006    c-0.254-0.192-0.511-0.379-0.768-0.566c-0.413-0.302-0.829-0.6-1.251-0.89c-0.272-0.187-0.547-0.371-0.822-0.554    c-0.421-0.279-0.847-0.551-1.276-0.819c-0.28-0.175-0.561-0.348-0.845-0.518c-0.443-0.265-0.891-0.52-1.342-0.772    c-0.277-0.155-0.553-0.313-0.833-0.463c-0.49-0.263-0.987-0.514-1.486-0.762c-0.248-0.124-0.493-0.253-0.743-0.372    c-0.652-0.312-1.313-0.61-1.979-0.896c-0.102-0.044-0.202-0.093-0.305-0.137c-0.772-0.327-1.554-0.634-2.344-0.926    c-0.225-0.083-0.454-0.156-0.681-0.236c-0.566-0.2-1.133-0.397-1.707-0.579c-0.301-0.095-0.605-0.181-0.908-0.271    c-0.509-0.151-1.019-0.3-1.534-0.437c-0.33-0.088-0.662-0.168-0.995-0.25c-0.497-0.122-0.996-0.239-1.498-0.347    c-0.345-0.074-0.69-0.144-1.037-0.212c-0.502-0.098-1.007-0.187-1.514-0.271c-0.347-0.057-0.694-0.115-1.043-0.165    c-0.524-0.076-1.052-0.14-1.581-0.201c-0.335-0.039-0.669-0.081-1.006-0.113c-0.582-0.056-1.169-0.096-1.757-0.134    c-0.287-0.018-0.571-0.044-0.859-0.058c-0.877-0.042-1.759-0.067-2.646-0.067c-0.887,0-1.769,0.025-2.646,0.067    c-0.288,0.014-0.573,0.04-0.86,0.058c-0.587,0.038-1.173,0.078-1.755,0.134c-0.338,0.033-0.672,0.075-1.008,0.114    c-0.528,0.061-1.055,0.125-1.578,0.201c-0.35,0.051-0.699,0.108-1.047,0.166c-0.505,0.084-1.008,0.173-1.509,0.27    c-0.349,0.068-0.696,0.139-1.043,0.213c-0.499,0.108-0.995,0.224-1.489,0.345c-0.336,0.082-0.671,0.164-1.004,0.252    c-0.51,0.135-1.015,0.282-1.519,0.432c-0.308,0.092-0.618,0.179-0.924,0.276c-0.563,0.178-1.118,0.371-1.673,0.567    c-0.238,0.084-0.479,0.161-0.716,0.249c-0.786,0.29-1.564,0.596-2.332,0.921c-0.127,0.054-0.251,0.114-0.378,0.169    c-0.641,0.277-1.277,0.562-1.905,0.862c-0.265,0.127-0.524,0.263-0.787,0.394c-0.482,0.241-0.964,0.483-1.438,0.737    c-0.293,0.157-0.582,0.322-0.872,0.485c-0.436,0.245-0.871,0.492-1.3,0.748c-0.296,0.177-0.588,0.358-0.88,0.54    c-0.415,0.259-0.827,0.523-1.235,0.792c-0.289,0.191-0.576,0.384-0.861,0.58c-0.405,0.279-0.804,0.565-1.201,0.855    c-0.273,0.199-0.547,0.397-0.816,0.601c-0.411,0.312-0.814,0.633-1.216,0.956c-0.242,0.195-0.487,0.385-0.726,0.584    c-0.462,0.385-0.914,0.782-1.363,1.181c-0.167,0.148-0.338,0.291-0.503,0.441c-0.607,0.553-1.201,1.119-1.782,1.699    c-0.147,0.146-0.286,0.3-0.432,0.448c-0.431,0.44-0.859,0.883-1.276,1.338c-0.208,0.228-0.409,0.462-0.613,0.693    c-0.343,0.387-0.684,0.775-1.016,1.172c-0.216,0.259-0.426,0.522-0.637,0.785c-0.308,0.382-0.612,0.766-0.91,1.156    c-0.211,0.277-0.418,0.557-0.624,0.838c-0.286,0.39-0.566,0.784-0.841,1.182c-0.198,0.287-0.395,0.574-0.588,0.865    c-0.273,0.41-0.537,0.826-0.798,1.244c-0.179,0.286-0.36,0.571-0.533,0.86c-0.27,0.449-0.528,0.905-0.784,1.363    c-0.15,0.267-0.305,0.531-0.451,0.802c-0.308,0.57-0.601,1.15-0.888,1.732c-0.081,0.164-0.168,0.323-0.247,0.488    c-0.359,0.746-0.701,1.502-1.027,2.267c-0.099,0.233-0.188,0.471-0.284,0.706c-0.221,0.539-0.439,1.08-0.643,1.628    c-0.114,0.306-0.217,0.616-0.326,0.923c-0.171,0.486-0.339,0.973-0.497,1.465c-0.107,0.334-0.206,0.672-0.307,1.009    c-0.142,0.476-0.279,0.953-0.408,1.434c-0.093,0.348-0.182,0.698-0.269,1.049c-0.119,0.481-0.23,0.965-0.336,1.452    c-0.077,0.353-0.153,0.706-0.223,1.061c-0.033,0.168-0.074,0.333-0.105,0.501l-157.194-0.003    c-0.033-0.173-0.074-0.344-0.108-0.517c-0.067-0.342-0.141-0.681-0.214-1.02c-0.109-0.5-0.223-0.998-0.346-1.493    c-0.084-0.339-0.17-0.677-0.26-1.013c-0.132-0.494-0.273-0.984-0.419-1.472c-0.097-0.326-0.194-0.652-0.297-0.976    c-0.161-0.504-0.333-1.002-0.508-1.499c-0.105-0.298-0.206-0.598-0.316-0.894c-0.207-0.558-0.429-1.108-0.655-1.657    c-0.092-0.226-0.178-0.456-0.274-0.68c-0.327-0.767-0.669-1.525-1.03-2.273c-0.073-0.151-0.153-0.297-0.227-0.447    c-0.294-0.597-0.594-1.19-0.91-1.774c-0.142-0.264-0.294-0.523-0.441-0.784c-0.26-0.463-0.521-0.925-0.794-1.379    c-0.172-0.287-0.351-0.568-0.528-0.851c-0.263-0.421-0.529-0.839-0.803-1.252c-0.192-0.289-0.387-0.574-0.585-0.859    c-0.276-0.399-0.558-0.795-0.844-1.187c-0.205-0.28-0.412-0.56-0.623-0.836c-0.297-0.39-0.601-0.774-0.909-1.155    c-0.212-0.263-0.423-0.528-0.639-0.787c-0.331-0.395-0.671-0.782-1.012-1.168c-0.206-0.232-0.408-0.468-0.617-0.697    c-0.412-0.45-0.836-0.889-1.263-1.325c-0.15-0.153-0.293-0.311-0.445-0.461c-0.58-0.579-1.173-1.144-1.779-1.696    c-0.168-0.154-0.344-0.299-0.514-0.451c-0.445-0.396-0.893-0.789-1.352-1.171c-0.242-0.201-0.49-0.394-0.735-0.591    c-0.398-0.32-0.798-0.639-1.206-0.948c-0.271-0.206-0.547-0.405-0.822-0.606c-0.395-0.288-0.792-0.573-1.195-0.851    c-0.287-0.197-0.576-0.391-0.867-0.583c-0.406-0.268-0.815-0.53-1.228-0.788c-0.294-0.184-0.589-0.366-0.887-0.544    c-0.426-0.255-0.858-0.501-1.292-0.744c-0.292-0.164-0.583-0.33-0.879-0.488c-0.471-0.253-0.949-0.493-1.427-0.732    c-0.266-0.133-0.529-0.271-0.798-0.4c-0.619-0.296-1.247-0.577-1.878-0.851c-0.135-0.059-0.267-0.123-0.403-0.181    c-0.767-0.324-1.544-0.63-2.329-0.92c-0.241-0.089-0.486-0.167-0.729-0.253c-0.55-0.194-1.102-0.386-1.66-0.563    c-0.308-0.098-0.621-0.186-0.932-0.278c-0.502-0.149-1.004-0.295-1.511-0.43c-0.335-0.089-0.672-0.171-1.009-0.253    c-0.493-0.121-0.987-0.236-1.485-0.344c-0.347-0.075-0.695-0.146-1.045-0.214c-0.5-0.097-1.003-0.187-1.508-0.27    c-0.348-0.057-0.696-0.115-1.047-0.166c-0.524-0.076-1.051-0.14-1.579-0.201c-0.335-0.039-0.669-0.081-1.006-0.114    c-0.583-0.056-1.169-0.096-1.757-0.134c-0.287-0.018-0.571-0.044-0.859-0.058c-0.877-0.042-1.758-0.067-2.646-0.067    c-0.887,0-1.768,0.025-2.646,0.067c-0.288,0.014-0.573,0.04-0.86,0.058c-0.587,0.038-1.173,0.078-1.755,0.134    c-0.338,0.033-0.673,0.075-1.009,0.114c-0.527,0.061-1.053,0.125-1.576,0.201c-0.352,0.051-0.701,0.109-1.05,0.166    c-0.504,0.083-1.005,0.172-1.504,0.269c-0.35,0.068-0.7,0.139-1.047,0.214c-0.496,0.107-0.989,0.222-1.481,0.343    c-0.339,0.083-0.679,0.166-1.015,0.255c-0.503,0.134-1.002,0.279-1.5,0.427c-0.314,0.093-0.63,0.183-0.942,0.281    c-0.55,0.174-1.094,0.364-1.637,0.555c-0.251,0.088-0.504,0.169-0.753,0.261c-0.782,0.289-1.556,0.593-2.32,0.916    c-0.155,0.066-0.306,0.139-0.46,0.206c-0.611,0.265-1.219,0.537-1.819,0.824c-0.28,0.134-0.554,0.278-0.832,0.417    c-0.467,0.233-0.933,0.468-1.392,0.714c-0.304,0.163-0.603,0.334-0.904,0.503c-0.424,0.238-0.847,0.478-1.264,0.728    c-0.306,0.183-0.609,0.37-0.912,0.559c-0.403,0.251-0.803,0.508-1.199,0.769c-0.3,0.198-0.598,0.398-0.894,0.602    c-0.392,0.27-0.778,0.547-1.163,0.827c-0.285,0.208-0.572,0.415-0.853,0.629c-0.393,0.299-0.779,0.606-1.164,0.915    c-0.259,0.208-0.521,0.411-0.775,0.624c-0.433,0.36-0.855,0.732-1.276,1.105c-0.196,0.173-0.396,0.341-0.59,0.517    c-0.599,0.547-1.187,1.107-1.761,1.679c-0.178,0.178-0.348,0.364-0.524,0.544c-0.399,0.409-0.796,0.819-1.182,1.24    c-0.225,0.245-0.441,0.498-0.661,0.747c-0.326,0.369-0.651,0.738-0.966,1.116c-0.228,0.272-0.45,0.55-0.672,0.827    c-0.295,0.367-0.587,0.736-0.873,1.111c-0.221,0.29-0.437,0.582-0.652,0.876c-0.275,0.376-0.545,0.756-0.811,1.14    c-0.207,0.299-0.413,0.599-0.614,0.902c-0.263,0.396-0.517,0.797-0.77,1.199c-0.188,0.3-0.377,0.598-0.559,0.902    c-0.259,0.431-0.506,0.869-0.753,1.307c-0.16,0.285-0.325,0.567-0.481,0.855c-0.29,0.538-0.565,1.084-0.837,1.632    c-0.098,0.196-0.202,0.388-0.297,0.586c-0.356,0.74-0.695,1.489-1.018,2.247c-0.11,0.258-0.208,0.521-0.314,0.781    c-0.21,0.515-0.419,1.03-0.613,1.552c-0.119,0.319-0.227,0.642-0.34,0.964c-0.166,0.473-0.33,0.946-0.483,1.424    c-0.11,0.343-0.212,0.689-0.315,1.035c-0.139,0.467-0.274,0.935-0.401,1.407c-0.095,0.355-0.186,0.712-0.275,1.07    c-0.117,0.473-0.226,0.949-0.33,1.428c-0.078,0.36-0.156,0.719-0.227,1.082c-0.032,0.164-0.072,0.326-0.103,0.49l-44.565,0    c-6.396,0-11.599-5.203-11.599-11.6v-52.039c0-13.302,9.021-24.794,21.938-27.947c5.699-1.393,10.594-2.981,14.591-4.735h363.192    c5.522,0,10-4.477,10-10c0-5.522-4.478-10-10-10H204.995V150.499c0-12.145,9.882-22.027,22.027-22.027h242.749    c19.166,0,22.027,26.864,22.027,42.878v260.068h0.001C491.799,445.541,481.629,447.649,475.568,447.649z" data-original="#000000" class="active-path" data-old_color="#f1cdb3" fill="#f1cdb3"/>
	</g>
</g><g>
	<g>
		<path d="M430.798,211.753c0.001-13.128-9.22-24.136-21.523-26.907c0.066-0.691,0.118-1.385,0.138-2.088c0-0.001,0-0.001,0-0.001    c0.229-8.137-2.811-15.872-8.558-21.783c-5.845-6.011-14.008-9.458-22.398-9.458c-10.138,0-19.167,4.933-24.82,12.529    c-5.649-7.596-14.686-12.529-24.847-12.529c-8.315,0-16.422,3.402-22.241,9.336c-5.779,5.892-8.875,13.641-8.717,21.817    c0.014,0.733,0.064,1.458,0.129,2.179c-12.298,2.775-21.513,13.78-21.513,26.905c0,11.107,6.602,20.695,16.084,25.064    c-6.68,8.266-10.578,18.726-10.578,29.785c0,26.116,21.247,47.363,47.363,47.363c8.602,0,17-2.351,24.306-6.721    c7.306,4.37,15.704,6.721,24.306,6.721c26.116,0,47.363-21.247,47.363-47.363c0-11.06-3.898-21.519-10.578-29.785    C424.197,232.448,430.798,222.86,430.798,211.753z M378.457,171.517c3.021,0,5.958,1.239,8.059,3.399    c1.949,2.005,2.98,4.589,2.905,7.278c-0.173,6.131-5.143,11.174-11.08,11.242c-1.63-0.007-3.191-0.353-4.611-1.004    c-0.179-0.083-0.355-0.172-0.535-0.253c-0.898-0.475-1.732-1.08-2.476-1.819c-2.089-2.073-3.233-4.858-3.221-7.844    C367.522,176.451,372.439,171.517,378.457,171.517z M320.826,174.857c2.113-2.154,4.941-3.341,7.963-3.341    c6.036,0,10.952,4.922,10.959,10.971c0.003,3.008-1.17,5.821-3.303,7.922c-0.727,0.717-1.54,1.308-2.409,1.777    c-0.327,0.148-0.646,0.307-0.969,0.462c-1.295,0.534-2.689,0.807-4.113,0.789c-6.019-0.099-11.01-5.102-11.127-11.153    C317.773,179.52,318.839,176.884,320.826,174.857z M296.448,211.754c-0.001-4.184,3.403-7.587,7.585-7.587    c4.184,0,7.587,3.403,7.587,7.587c0,0.859-0.15,1.681-0.414,2.452c-0.25,0.503-0.491,1.011-0.723,1.524    c-1.338,2.162-3.725,3.61-6.449,3.61C299.851,219.34,296.448,215.937,296.448,211.754z M377.929,293.967    c-6.521,0-12.841-2.34-17.796-6.59c-1.873-1.607-4.191-2.409-6.51-2.409c-2.318,0-4.637,0.803-6.51,2.409    c-4.955,4.25-11.275,6.59-17.796,6.59c-15.088,0-27.363-12.275-27.363-27.363c0-11.437,7.211-21.766,17.943-25.701    c3.592-1.316,6.117-4.567,6.506-8.373c0.288-2.822,1.001-5.5,2.06-7.984c0.356-0.677,0.69-1.367,0.99-2.075    c2.657-5.007,6.81-9.053,11.853-11.581c0.435-0.191,0.865-0.392,1.291-0.604c3.378-1.478,7.109-2.296,11.026-2.296    c3.909,0,7.632,0.815,11.005,2.287c0.426,0.211,0.856,0.411,1.291,0.602c5.053,2.527,9.213,6.578,11.874,11.592    c0.3,0.708,0.634,1.398,0.99,2.075c1.059,2.484,1.772,5.162,2.06,7.984c0.389,3.806,2.914,7.057,6.506,8.373    c10.732,3.936,17.943,14.264,17.943,25.701C405.292,281.691,393.017,293.967,377.929,293.967z M403.213,219.34    c-2.724,0-5.111-1.448-6.449-3.61c-0.232-0.513-0.474-1.021-0.723-1.524c-0.264-0.77-0.414-1.593-0.414-2.452    c0-4.184,3.403-7.587,7.587-7.587c4.183,0,7.586,3.403,7.586,7.587C410.799,215.936,407.396,219.34,403.213,219.34z" data-original="#000000" class="active-path" data-old_color="#f1cdb3" fill="#f1cdb3"/>
	</g>
</g><g>
	<g>
		<path d="M469.899,339.42c-0.129-0.64-0.319-1.271-0.569-1.87c-0.25-0.61-0.561-1.19-0.92-1.73c-0.36-0.55-0.78-1.06-1.24-1.52    c-0.46-0.46-0.97-0.88-1.52-1.24c-0.54-0.359-1.119-0.67-1.73-0.92c-0.601-0.25-1.23-0.439-1.87-0.57c-1.29-0.26-2.62-0.26-3.9,0    c-0.64,0.131-1.27,0.32-1.88,0.57c-0.6,0.25-1.18,0.561-1.72,0.92c-0.55,0.36-1.06,0.78-1.52,1.24    c-0.461,0.46-0.881,0.97-1.25,1.52c-0.36,0.54-0.671,1.12-0.91,1.73c-0.25,0.6-0.45,1.23-0.57,1.87c-0.13,0.64-0.2,1.3-0.2,1.95    c0,0.649,0.07,1.31,0.2,1.96c0.12,0.63,0.32,1.26,0.57,1.87c0.25,0.6,0.56,1.18,0.92,1.72c0.359,0.55,0.779,1.06,1.24,1.52    c0.46,0.46,0.97,0.88,1.52,1.25c0.54,0.36,1.12,0.66,1.72,0.91c0.61,0.25,1.24,0.45,1.88,0.57c0.641,0.13,1.301,0.2,1.95,0.2    c0.65,0,1.311-0.07,1.95-0.2c0.64-0.12,1.27-0.32,1.87-0.57c0.61-0.25,1.19-0.55,1.73-0.91c0.551-0.37,1.061-0.79,1.52-1.25    c0.46-0.46,0.88-0.97,1.24-1.52c0.359-0.54,0.67-1.12,0.92-1.72c0.25-0.61,0.439-1.24,0.569-1.87c0.131-0.65,0.2-1.311,0.2-1.96    C470.099,340.72,470.03,340.06,469.899,339.42z" data-original="#000000" class="active-path" data-old_color="#f1cdb3" fill="#f1cdb3"/>
	</g>
</g><g>
	<g>
		<path d="M353.623,0c-5.522,0-10,4.477-10,10v16.74c0,5.523,4.478,10,10,10c5.523,0,10-4.478,10-10V10    C363.623,4.477,359.146,0,353.623,0z" data-original="#000000" class="active-path" data-old_color="#f1cdb3" fill="#f1cdb3"/>
	</g>
</g><g>
	<g>
		<path d="M311.494,38.883l-13.958-10.959c-4.347-3.412-10.631-2.653-14.041,1.69c-3.41,4.344-2.653,10.63,1.69,14.04l13.958,10.959    c1.832,1.438,4.008,2.135,6.169,2.135c2.965,0,5.899-1.313,7.872-3.824C316.595,48.579,315.838,42.293,311.494,38.883z" data-original="#000000" class="active-path" data-old_color="#f1cdb3" fill="#f1cdb3"/>
	</g>
</g><g>
	<g>
		<path d="M423.751,29.613c-3.41-4.344-9.695-5.101-14.041-1.69l-13.958,10.959c-4.344,3.41-5.101,9.696-1.69,14.041    c1.972,2.514,4.907,3.825,7.872,3.825c2.16,0,4.337-0.697,6.169-2.135l13.958-10.959    C426.405,40.244,427.162,33.958,423.751,29.613z" data-original="#000000" class="active-path" data-old_color="#f1cdb3" fill="#f1cdb3"/>
	</g>
</g></g> </svg>
