<?xml version="1.0"?>
<svg xmlns="http://www.w3.org/2000/svg" xmlns:xlink="http://www.w3.org/1999/xlink" version="1.1" id="Layer_1" x="0px" y="0px" viewBox="0 0 512 512" style="enable-background:new 0 0 512 512;" xml:space="preserve" width="512px" height="512px"><g><g>
	<g>
		<g>
			<path d="M437.019,74.98C388.667,26.63,324.38,0,256,0S123.333,26.63,74.981,74.98C26.628,123.333,0,187.619,0,256     s26.628,132.667,74.981,181.02C123.333,485.37,187.62,512,256,512s132.667-26.63,181.019-74.98     C485.372,388.667,512,324.381,512,256S485.372,123.333,437.019,74.98z M90.721,421.278     c-40.337-40.337-64.104-92.825-67.907-149.208l0.003,0.006c6.114,0.209,12.36,0.782,18.674,1.721     c45.254,6.722,90.795,31.043,128.232,68.48c37.437,37.438,61.757,82.978,68.48,128.233c0.933,6.274,1.505,12.484,1.715,18.563     C185.531,485.355,132.205,462.761,90.721,421.278z M262.197,489.542c-0.203-7.316-0.857-14.778-1.976-22.304     c-7.42-49.942-33.969-99.912-74.759-140.702c-40.79-40.79-90.759-67.339-140.703-74.759c-7.565-1.124-15.065-1.781-22.416-1.979     c0.194-7.475,0.738-14.89,1.622-22.229c7.932,0.26,15.992,0.99,24.066,2.189c54.632,8.115,109.029,36.895,153.172,81.037     c44.141,44.14,72.921,98.538,81.037,153.17c1.193,8.034,1.917,16.05,2.182,23.939     C277.04,488.803,269.623,489.347,262.197,489.542z M421.278,421.278c-32.656,32.654-72.648,53.605-114.72,62.859     c-0.365-7.752-1.131-15.595-2.296-23.442c-8.813-59.323-39.823-118.147-87.316-165.641     c-47.495-47.494-106.32-78.502-165.641-87.315c-7.875-1.17-15.746-1.939-23.532-2.302l-0.061,0.05     c9.459-43.151,31.023-82.779,63.01-114.766c31.239-31.239,69.192-51.765,109.256-61.588c0.264,9.053,1.082,18.249,2.453,27.479     c8.812,59.321,39.821,118.146,87.315,165.641c47.494,47.494,106.319,78.502,165.643,87.315c9.256,1.375,18.479,2.197,27.56,2.456     l0.1-0.166C473.022,352.934,451.94,390.617,421.278,421.278z M487.314,289.843c-9.393-0.094-18.993-0.859-28.654-2.294     c-54.634-8.116-109.032-36.895-153.173-81.037s-72.921-98.539-81.036-153.17c-1.429-9.619-2.196-19.177-2.294-28.525     c7.394-1.073,14.83-1.792,22.281-2.157c-0.017,8.935,0.651,18.108,2.032,27.411c7.42,49.943,33.97,99.913,74.76,140.702     c4.346,4.345,11.394,4.345,15.741,0c4.346-4.346,4.346-11.394,0-15.742c-37.437-37.437-61.757-82.977-68.48-128.232     c-1.223-8.237-1.825-16.332-1.806-24.181c56.245,2.55,111.74,25.247,154.595,68.104c41.62,41.62,65.602,96.175,68.212,154.597     c-7.899,0.017-16.016-0.58-24.29-1.809c-6.079-0.903-11.743,3.295-12.645,9.375c-0.904,6.081,3.294,11.741,9.374,12.644     c9.194,1.366,18.264,2.05,27.1,2.05c0.144,0,0.285-0.008,0.429-0.008C489.096,275.068,488.373,282.496,487.314,289.843z" data-original="#000000" class="active-path" data-old_color="#f1cdb3" fill="#f1cdb3"/>
			<path d="M393.828,219.947c-2.927,0-5.799,1.181-7.869,3.262c-2.081,2.069-3.261,4.941-3.261,7.868     c0,2.928,1.18,5.799,3.261,7.869c2.07,2.071,4.942,3.261,7.869,3.261s5.799-1.19,7.869-3.261c2.07-2.071,3.261-4.941,3.261-7.869     c0-2.927-1.191-5.799-3.261-7.868C399.627,221.128,396.755,219.947,393.828,219.947z" data-original="#000000" class="active-path" data-old_color="#f1cdb3" fill="#f1cdb3"/>
		</g>
	</g>
</g></g> </svg>
