<?xml version="1.0"?>
<svg xmlns="http://www.w3.org/2000/svg" xmlns:xlink="http://www.w3.org/1999/xlink" version="1.1" id="Layer_1" x="0px" y="0px" viewBox="0 0 512.001 512.001" style="enable-background:new 0 0 512.001 512.001;" xml:space="preserve" width="512px" height="512px"><g><g>
	<g>
		<g>
			<path d="M511.873,336.617l-24.401-163.934c-0.395-47.603-29.291-91.743-79.442-121.229     c-41.537-24.419-95.528-37.868-152.029-37.868c-56.503,0-110.495,13.449-152.032,37.868     C53.819,80.94,24.922,125.08,24.528,172.683L0.127,336.617C0.043,337.184,0,337.757,0,338.331     c0,48.204,32.124,92.843,88.136,122.471c45.856,24.255,105.471,37.613,167.865,37.613c62.392,0,122.008-13.358,167.864-37.613     c56.011-29.628,88.136-74.267,88.136-122.471C512,337.757,511.958,337.184,511.873,336.617z M115.77,71.527     c38.014-22.348,87.815-34.656,140.231-34.656c52.415,0,102.216,12.308,140.229,34.656c43.2,25.398,67.978,62.629,67.978,102.144     s-24.777,76.745-67.977,102.144c-38.014,22.348-87.815,34.656-140.23,34.656s-102.217-12.308-140.23-34.656     c-43.2-25.398-67.978-62.629-67.978-102.144S72.57,96.926,115.77,71.527z M412.977,440.219     c-42.562,22.513-98.31,34.911-156.976,34.911c-58.667,0-114.416-12.398-156.977-34.911     c-47.792-25.281-75.348-62.073-75.735-101.056l16.029-107.685c13.352,24.977,35.373,47.192,64.653,64.407     c41.537,24.419,95.528,37.868,152.03,37.868c56.501,0,110.494-13.449,152.03-37.868c29.28-17.215,51.301-39.431,64.653-64.407     l16.029,107.685C488.325,378.147,460.769,414.939,412.977,440.219z" data-original="#000000" class="active-path" data-old_color="#f1cdb3" fill="#f1cdb3"/>
			<path d="M256.001,287.18c79.815,0,150.253-30.883,175.271-76.842c6.403-11.747,9.651-24.085,9.651-36.668     c0-31.507-20.064-60.654-56.495-82.071C349.939,71.325,304.33,60.16,256.001,60.16S162.062,71.326,127.574,91.6     c-36.432,21.417-56.496,50.563-56.496,82.071c0,12.584,3.247,24.921,9.648,36.662C105.748,256.297,176.185,287.18,256.001,287.18     z M256.001,263.896c-66.948,0-127.76-24.053-151.419-59.158c23.668-35.085,84.489-59.114,151.419-59.114     s127.752,24.029,151.42,59.115C383.766,239.843,322.951,263.896,256.001,263.896z M94.361,173.671     c0.001-22.917,15.986-44.935,45.012-61.999C170.34,93.469,211.758,83.444,256,83.444c44.241,0,85.661,10.025,116.627,28.229     c29.026,17.063,45.012,39.08,45.012,61.998c0,2.042-0.138,4.079-0.393,6.111C385.137,144.742,323.975,122.34,256,122.34     s-129.136,22.403-161.245,57.442C94.5,177.751,94.361,175.712,94.361,173.671z" data-original="#000000" class="active-path" data-old_color="#f1cdb3" fill="#f1cdb3"/>
			<path d="M256,352.958c-3.182,0-6.225,1.303-8.422,3.604c-7.584,7.945-32.325,35.363-32.325,54.606     c0,22.468,18.279,40.747,40.747,40.747c22.468,0,40.747-18.279,40.747-40.747c0-19.243-24.742-46.661-32.325-54.606     C262.225,354.261,259.182,352.958,256,352.958z M256,428.632c-9.629,0-17.463-7.834-17.463-17.463     c0-5.169,8.126-17.658,17.463-28.993c9.338,11.337,17.463,23.824,17.463,28.993C273.463,420.798,265.629,428.632,256,428.632z" data-original="#000000" class="active-path" data-old_color="#f1cdb3" fill="#f1cdb3"/>
			<path d="M203.813,200.447h-3.589c-6.43,0-11.642,5.212-11.642,11.642c0,6.43,5.212,11.642,11.642,11.642h3.589     c6.43,0,11.642-5.212,11.642-11.642C215.455,205.659,210.243,200.447,203.813,200.447z" data-original="#000000" class="active-path" data-old_color="#f1cdb3" fill="#f1cdb3"/>
			<path d="M341.965,200.447h-83.047c-6.43,0-11.642,5.212-11.642,11.642c0,6.43,5.212,11.642,11.642,11.642h83.047     c6.43,0,11.642-5.212,11.642-11.642C353.607,205.659,348.395,200.447,341.965,200.447z" data-original="#000000" class="active-path" data-old_color="#f1cdb3" fill="#f1cdb3"/>
		</g>
	</g>
</g></g> </svg>
