<?xml version="1.0"?>
<svg xmlns="http://www.w3.org/2000/svg" xmlns:xlink="http://www.w3.org/1999/xlink" version="1.1" id="Capa_1" x="0px" y="0px" viewBox="0 0 512 512" style="enable-background:new 0 0 512 512;" xml:space="preserve" width="512px" height="512px"><g><g>
	<g>
		<path d="M511.765,180.695c-1.898-35.461-16.915-68.76-42.284-93.765c-25.706-25.337-59.251-39.291-94.458-39.291    c-55.689,0-100.817,46.301-118.822,67.877C238.783,93.795,194.949,47.64,136.98,47.64c-35.205,0-68.748,13.954-94.454,39.291    c-25.369,25.005-40.385,58.305-42.283,93.766c-1.887,35.369,7.146,66.127,29.291,99.733    c20.149,30.573,73.033,79.261,112.197,111.666c32.619,26.989,90.87,72.265,114.508,72.265c24.017,0,82.015-45.174,114.451-72.102    c38.863-32.265,91.461-80.914,111.8-111.838C497.392,257.745,514.188,225.919,511.765,180.695z M478.3,247.572h-21.129    c1.606-5.125,2.474-10.574,2.474-16.222c0-13.558-5.103-26.331-13.75-36.088c4.164-1.515,7.984-3.932,11.217-7.158    c5.849-5.838,9.07-13.604,9.07-21.868c0-15.794-11.924-28.849-27.241-30.656c0.207-1.532,0.323-3.093,0.323-4.68    c0-19.233-15.648-34.881-34.881-34.881c-11.525,0-21.758,5.622-28.113,14.264c-6.361-8.573-16.554-14.141-28.025-14.141    c-19.234,0-34.881,15.647-34.881,34.882c0,1.556,0.113,3.086,0.311,4.589c-15.194,1.921-26.985,14.917-26.985,30.623    c0,8.248,3.211,16.003,9.042,21.836c3.238,3.239,7.07,5.666,11.247,7.187c-8.649,9.758-13.753,22.532-13.753,36.091    c0,23.113,14.508,42.89,34.891,50.736l-16.777,42.416l-54.883-103.686c-1.729-3.266-5.118-5.313-8.813-5.321    c-0.008,0-0.017,0-0.025,0c-3.686,0-7.074,2.028-8.815,5.278l-43.604,81.4l-8.954-22.887c-2.012-5.143-7.813-7.679-12.956-5.669    c-5.143,2.012-7.682,7.813-5.669,12.956l16.849,43.066c1.421,3.633,4.825,6.108,8.719,6.339c3.888,0.229,7.566-1.822,9.409-5.261    l44.969-83.948l56.252,106.271c1.74,3.285,5.148,5.321,8.836,5.321c0.184,0,0.368-0.005,0.553-0.016    c3.897-0.215,7.313-2.677,8.748-6.307L348.2,285.69c10.035-0.115,19.806-3.006,28.236-8.291    c8.604,5.394,18.603,8.302,28.855,8.302c16.067,0,30.522-7.013,40.481-18.132h21.208c-0.399,0.62-0.796,1.24-1.205,1.862    c-15.496,23.568-58.843,66.744-107.861,107.439c-59.643,49.517-93.482,67.49-101.675,67.49c-8.026,0-41.748-18.022-101.758-67.674    c-36.965-30.585-70.621-62.415-91.655-86.258h31.927c4.061,0,7.719-2.456,9.256-6.215l32.044-78.353l8.733,22.323    c2.012,5.143,7.814,7.684,12.956,5.669c5.143-2.012,7.681-7.813,5.669-12.956l-17.84-45.6c-1.49-3.808-5.147-6.325-9.236-6.356    c-0.026,0-0.052,0-0.077,0c-4.058,0-7.717,2.454-9.255,6.215l-38.964,95.273H46.915c-0.226-0.334-0.466-0.678-0.681-1.004    c-19.639-29.805-27.664-56.84-26.019-87.661c3.367-62.926,55.747-114.122,116.764-114.122c63.382,0,110.245,69.194,110.705,69.885    c1.826,2.752,4.894,4.424,8.196,4.469c3.284,0.061,6.413-1.544,8.314-4.244c0.493-0.701,50.036-70.109,110.829-70.109    c61.02,0,113.404,51.195,116.771,114.125C493.03,204.87,488.807,225.878,478.3,247.572z M335.759,199.081    c3.592-1.316,6.118-4.567,6.506-8.373c0.399-3.905,1.438-7.594,3.002-10.974c0.032-0.066,0.064-0.132,0.096-0.198    c3.368-7.154,9.109-12.889,16.186-16.274c0.589-0.244,1.173-0.5,1.745-0.775c4.056-1.668,8.494-2.591,13.144-2.591    c4.792,0,9.36,0.979,13.516,2.746c0.334,0.152,0.668,0.306,1.007,0.448c7.199,3.339,13.051,9.096,16.486,16.308    c0.067,0.141,0.135,0.282,0.205,0.422c1.542,3.356,2.565,7.017,2.961,10.888c0.388,3.806,2.914,7.057,6.506,8.373    c13.475,4.94,22.528,17.908,22.528,32.268c0,18.942-15.411,34.353-34.354,34.353c-8.189,0-16.124-2.938-22.344-8.273    c-1.873-1.607-4.192-2.41-6.511-2.41s-4.638,0.804-6.511,2.41c-6.218,5.335-14.153,8.273-22.342,8.273    c-18.943,0-34.354-15.411-34.354-34.353C313.232,216.99,322.284,204.022,335.759,199.081z M309.881,173.93    c-2.055-2.056-3.187-4.789-3.187-7.696c0-5.997,4.879-10.877,10.877-10.877c2.947,0,5.712,1.152,7.785,3.242    c2.018,2.036,3.117,4.718,3.093,7.551c-0.012,1.466-0.314,2.863-0.842,4.142c-0.187,0.383-0.376,0.766-0.555,1.155    c-1.871,3.371-5.43,5.661-9.489,5.664c-0.003,0-0.006,0-0.01,0C314.655,177.111,311.932,175.981,309.881,173.93z M333.369,131.023    c0-8.206,6.676-14.882,14.881-14.882c8.206,0,14.881,6.676,14.881,14.882c-0.001,5.763-3.3,10.76-8.102,13.231    c-0.524,0.223-1.047,0.449-1.562,0.688c-1.626,0.612-3.38,0.962-5.217,0.962C340.044,145.904,333.369,139.228,333.369,131.023z     M389.505,130.899c0-8.205,6.675-14.881,14.881-14.881c8.206,0,14.881,6.676,14.881,14.881c0,8.205-6.676,14.881-14.881,14.881    c-1.877,0-3.667-0.364-5.322-1.001c-0.359-0.163-0.724-0.315-1.086-0.47C392.976,141.909,389.505,136.808,389.505,130.899z     M435.347,177.111c-0.007,0-0.014,0-0.022,0c-4.057-0.007-7.613-2.287-9.488-5.641c-0.187-0.407-0.384-0.806-0.58-1.207    c-0.52-1.269-0.817-2.652-0.828-4.104c-0.021-2.841,1.081-5.527,3.104-7.565c2.071-2.087,4.832-3.236,7.774-3.236    c5.998,0,10.877,4.879,10.877,10.877c0,2.914-1.136,5.654-3.199,7.712C440.94,175.988,438.229,177.111,435.347,177.111z" data-original="#000000" class="active-path" data-old_color="#f1cdb3" fill="#f1cdb3"/>
	</g>
</g><g>
	<g>
		<path d="M175.226,251.259c-0.12-0.64-0.32-1.27-0.57-1.87c-0.25-0.6-0.55-1.18-0.92-1.729c-0.36-0.54-0.78-1.061-1.24-1.521    c-0.46-0.46-0.97-0.87-1.52-1.24c-0.54-0.359-1.12-0.67-1.72-0.92c-0.61-0.25-1.24-0.439-1.88-0.569    c-1.289-0.261-2.61-0.261-3.9,0c-0.64,0.13-1.27,0.319-1.87,0.569c-0.61,0.25-1.19,0.561-1.73,0.92    c-0.55,0.37-1.059,0.78-1.52,1.24c-0.46,0.46-0.88,0.98-1.24,1.521c-0.36,0.55-0.67,1.13-0.92,1.729    c-0.25,0.601-0.44,1.23-0.57,1.87c-0.13,0.65-0.2,1.3-0.2,1.96c0,0.65,0.07,1.311,0.2,1.95c0.13,0.64,0.32,1.27,0.57,1.87    c0.25,0.6,0.56,1.19,0.92,1.73s0.78,1.061,1.24,1.52c0.46,0.46,0.97,0.88,1.52,1.24c0.54,0.359,1.12,0.67,1.73,0.92    c0.6,0.25,1.23,0.439,1.87,0.569c0.64,0.13,1.3,0.2,1.95,0.2c2.63,0,5.21-1.07,7.07-2.93c0.46-0.458,0.88-0.979,1.24-1.519    s0.67-1.13,0.92-1.73c0.25-0.6,0.45-1.23,0.57-1.87c0.13-0.64,0.2-1.3,0.2-1.95C175.426,252.559,175.356,251.91,175.226,251.259z" data-original="#000000" class="active-path" data-old_color="#f1cdb3" fill="#f1cdb3"/>
	</g>
</g></g> </svg>
