<?xml version="1.0"?>
<svg xmlns="http://www.w3.org/2000/svg" xmlns:xlink="http://www.w3.org/1999/xlink" version="1.1" id="Layer_1" x="0px" y="0px" viewBox="0 0 512 512" style="enable-background:new 0 0 512 512;" xml:space="preserve" width="512px" height="512px"><g><g>
	<g>
		<g>
			<path d="M451.395,217.581L402.286,83.177V12.19c0-6.732-5.459-12.19-12.19-12.19h-268.19c-6.732,0-12.19,5.459-12.19,12.19     v70.986L60.605,217.581c-5.836,15.972-8.795,32.692-8.795,49.699v202.706C51.81,493.152,70.657,512,93.824,512h324.352     c23.167,0,42.014-18.848,42.014-42.014V267.28C460.19,250.274,457.231,233.552,451.395,217.581z M134.095,24.381h243.81v48.762     h-243.81V24.381z M435.81,427.794H263.746c-6.732,0-12.19,5.459-12.19,12.19c0,6.732,5.459,12.19,12.19,12.19H435.81v17.81     c0,9.723-7.91,17.634-17.634,17.634H93.824c-9.723,0-17.633-7.91-17.633-17.634V267.28c0-14.143,2.461-28.049,7.314-41.332     L130.43,97.524H381.57l46.925,128.424c4.853,13.283,7.314,27.19,7.314,41.332V427.794z" data-original="#000000" class="active-path" data-old_color="#f1cdb3" fill="#f1cdb3"/>
			<path d="M303.931,288.469c-3.98-24.984-25.678-44.143-51.767-44.143c-26.089,0-47.787,19.159-51.767,44.143     c-20.625,8.481-34.119,29.616-32.377,52.573c1.943,25.581,22.705,46.303,48.291,48.204c9.883,0.736,19.697-1.297,28.383-5.879     c4.748-2.501,10.194-2.503,14.938,0.001c7.528,3.969,15.901,6.025,24.435,6.025c1.312,0,2.631-0.049,3.947-0.146     c25.588-1.9,46.349-22.623,48.293-48.204C338.05,318.085,324.556,296.95,303.931,288.469z M311.996,339.195     c-1.037,13.658-12.122,24.722-25.786,25.737c-5.313,0.402-10.572-0.686-15.203-3.131c-5.899-3.111-12.37-4.667-18.842-4.667     c-6.472,0-12.943,1.556-18.842,4.667c-4.631,2.443-9.879,3.53-15.204,3.131c-13.663-1.014-24.749-12.078-25.785-25.737     c-1.065-14.023,8.452-26.77,22.135-29.652c5.733-1.207,9.796-6.322,9.677-12.18l-0.02-0.617     c0-15.461,12.577-28.038,28.038-28.038s28.038,12.577,28.038,27.994l-0.019,0.661c-0.121,5.859,3.942,10.973,9.677,12.18     C303.545,312.425,313.061,325.172,311.996,339.195z" data-original="#000000" class="active-path" data-old_color="#f1cdb3" fill="#f1cdb3"/>
			<path d="M252.165,219.947c21.847,0,39.619-17.772,39.619-39.619s-17.772-39.619-39.619-39.619s-39.619,17.773-39.619,39.619     S230.32,219.947,252.165,219.947z M252.165,165.09c8.403,0,15.238,6.835,15.238,15.238s-6.835,15.238-15.238,15.238     c-8.403,0-15.238-6.835-15.238-15.238S243.763,165.09,252.165,165.09z" data-original="#000000" class="active-path" data-old_color="#f1cdb3" fill="#f1cdb3"/>
			<path d="M206.451,227.465c0-21.847-17.773-39.619-39.619-39.619s-39.619,17.773-39.619,39.619s17.772,39.619,39.619,39.619     S206.451,249.311,206.451,227.465z M166.832,242.703c-8.403,0-15.238-6.835-15.238-15.238s6.835-15.238,15.238-15.238     s15.238,6.835,15.238,15.238S175.234,242.703,166.832,242.703z" data-original="#000000" class="active-path" data-old_color="#f1cdb3" fill="#f1cdb3"/>
			<path d="M337.498,187.845c-21.847,0-39.619,17.773-39.619,39.619s17.774,39.619,39.619,39.619     c21.847,0,39.619-17.772,39.619-39.619S359.345,187.845,337.498,187.845z M337.498,242.703c-8.403,0-15.238-6.835-15.238-15.238     s6.836-15.238,15.238-15.238c8.403,0,15.238,6.835,15.238,15.238S345.901,242.703,337.498,242.703z" data-original="#000000" class="active-path" data-old_color="#f1cdb3" fill="#f1cdb3"/>
			<path d="M210.717,427.794h-2.96c-6.732,0-12.19,5.459-12.19,12.19c0,6.732,5.459,12.19,12.19,12.19h2.96     c6.732,0,12.19-5.459,12.19-12.19C222.908,433.253,217.45,427.794,210.717,427.794z" data-original="#000000" class="active-path" data-old_color="#f1cdb3" fill="#f1cdb3"/>
		</g>
	</g>
</g></g> </svg>
