<?xml version="1.0"?>
<svg xmlns="http://www.w3.org/2000/svg" xmlns:xlink="http://www.w3.org/1999/xlink" version="1.1" id="Capa_1" x="0px" y="0px" viewBox="0 0 511.999 512" style="enable-background:new 0 0 511.999 512;" xml:space="preserve" width="512px" height="512px"><g><g>
	<g>
		<path d="M492.069,170.379L261.906,1.931c-3.518-2.574-8.295-2.574-11.813,0L19.931,170.379c-4.456,3.262-5.425,9.519-2.163,13.976    l30.083,41.105c1.565,2.14,3.918,3.57,6.539,3.976c2.622,0.407,5.296-0.246,7.437-1.813l9.078-6.644v281.02    c0,5.522,4.478,10,10,10h350.718c5.522,0,10-4.478,10-10V221.366l8.55,6.257c1.725,1.263,3.796,1.931,5.906,1.931    c0.509,0,1.021-0.039,1.53-0.118c2.621-0.405,4.974-1.836,6.539-3.976l30.083-41.105    C497.494,179.897,496.525,173.641,492.069,170.379z M421.623,452.997H185.031c-5.522,0-10,4.478-10,10c0,5.522,4.478,10,10,10    h236.592V492H90.904V214.23h234.182c5.522,0,10-4.478,10-10c0-5.522-4.478-10-10-10H107.46L256,85.515l165.623,121.214V452.997z     M453.915,205.578l-16.385-11.992c0,0-0.001,0-0.001-0.001L261.906,65.054c-1.759-1.287-3.832-1.931-5.906-1.931    c-2.074,0-4.148,0.644-5.906,1.931L58.084,205.578l-18.271-24.966L256.001,22.391l216.188,158.221L453.915,205.578z" data-original="#000000" class="active-path" data-old_color="#f1cdb3" fill="#f1cdb3"/>
	</g>
</g><g>
	<g>
		<path d="M370.92,202.28c-0.13-0.641-0.33-1.271-0.58-1.881c-0.25-0.6-0.56-1.18-0.92-1.72c-0.36-0.55-0.78-1.06-1.24-1.52    c-1.86-1.86-4.44-2.931-7.07-2.931c-2.63,0-5.21,1.07-7.069,2.931c-0.46,0.46-0.88,0.97-1.24,1.52c-0.36,0.54-0.67,1.12-0.92,1.72    c-0.25,0.61-0.45,1.24-0.57,1.881c-0.13,0.64-0.2,1.3-0.2,1.949c0,0.65,0.07,1.311,0.2,1.95c0.12,0.639,0.32,1.27,0.57,1.88    c0.25,0.601,0.56,1.181,0.92,1.721c0.36,0.55,0.78,1.059,1.24,1.52c0.46,0.46,0.97,0.88,1.52,1.24c0.54,0.359,1.12,0.67,1.73,0.92    c0.6,0.25,1.229,0.45,1.87,0.57c0.64,0.13,1.3,0.199,1.949,0.199c0.65,0,1.311-0.069,1.95-0.199c0.641-0.12,1.271-0.32,1.87-0.57    c0.61-0.25,1.19-0.561,1.73-0.92c0.55-0.36,1.059-0.78,1.52-1.24c0.46-0.46,0.88-0.97,1.24-1.52c0.36-0.54,0.67-1.12,0.92-1.721    c0.25-0.609,0.45-1.24,0.58-1.88s0.189-1.3,0.189-1.95C371.109,203.58,371.049,202.919,370.92,202.28z" data-original="#000000" class="active-path" data-old_color="#f1cdb3" fill="#f1cdb3"/>
	</g>
</g><g>
	<g>
		<path d="M158.808,461.041c-0.129-0.641-0.319-1.27-0.569-1.87c-0.25-0.601-0.561-1.19-0.921-1.73    c-0.359-0.54-0.779-1.06-1.239-1.52c-0.46-0.46-0.971-0.87-1.52-1.24c-0.54-0.36-1.12-0.67-1.73-0.92    c-0.601-0.25-1.23-0.44-1.87-0.57c-1.29-0.26-2.62-0.26-3.91,0c-0.63,0.13-1.26,0.32-1.87,0.57c-0.6,0.25-1.18,0.56-1.72,0.92    c-0.55,0.36-1.061,0.78-1.52,1.24c-0.47,0.46-0.88,0.98-1.25,1.52c-0.359,0.54-0.67,1.13-0.92,1.73    c-0.25,0.6-0.439,1.23-0.569,1.87c-0.131,0.65-0.19,1.3-0.19,1.95c0,0.659,0.059,1.31,0.19,1.96c0.13,0.64,0.319,1.27,0.569,1.869    c0.25,0.601,0.561,1.181,0.92,1.73c0.37,0.54,0.78,1.05,1.25,1.52c0.46,0.461,0.971,0.881,1.52,1.24    c0.54,0.36,1.12,0.67,1.72,0.92c0.61,0.25,1.24,0.44,1.87,0.57c0.65,0.13,1.31,0.2,1.96,0.2c0.65,0,1.309-0.07,1.95-0.2    c0.64-0.13,1.27-0.32,1.87-0.57c0.609-0.25,1.189-0.56,1.73-0.92c0.55-0.359,1.06-0.779,1.52-1.24    c0.46-0.47,0.88-0.979,1.239-1.52c0.36-0.55,0.671-1.13,0.921-1.73c0.25-0.6,0.439-1.229,0.569-1.869    c0.13-0.65,0.2-1.301,0.2-1.96C159.008,462.341,158.938,461.69,158.808,461.041z" data-original="#000000" class="active-path" data-old_color="#f1cdb3" fill="#f1cdb3"/>
	</g>
</g><g>
	<g>
		<path d="M380.215,260.9c0-8.481-3.326-16.44-9.366-22.409c-5.982-5.911-14.162-9.22-22.503-9.148    c-2.5,0.021-5.029,0.352-7.519,0.983c-0.09,0.022-0.18,0.047-0.269,0.072c-18.426,4.71-36.604,11.011-54.091,18.747    c-9.92-2.353-20.151-3.544-30.466-3.544c-5.777,0-11.605,0.379-17.326,1.127c-4.407,0.58-8.812,1.391-13.139,2.417    c-1.126-0.498-2.289-1.005-3.506-1.528c-16.369-7.029-33.384-12.821-50.576-17.217c-0.089-0.025-0.179-0.049-0.268-0.072    c-9.842-2.506-19.992-0.252-27.846,6.192c-7.852,6.442-12.045,15.954-11.506,26.09c0.545,10.347,1.577,20.807,3.067,31.091    c1.33,9.188,3.056,18.435,5.135,27.534c-3.101,7.941-5.259,16.2-6.427,24.601c-0.49,3.539-0.738,7.11-0.738,10.614    c0,44.765,39.036,81.185,87.02,81.185h72.223c26.301,0,50.907-10.938,67.51-30.009c15.215-17.477,21.881-39.424,18.77-61.796    c-0.661-4.757-1.654-9.533-2.954-14.209c-0.974-3.485-2.136-6.965-3.468-10.38c4.398-19.244,7.155-38.943,8.197-58.604    C380.2,262.052,380.215,261.476,380.215,260.9z M360.196,261.522c0,0.011-0.001,0.022-0.002,0.034    c-1.034,19.536-3.865,39.112-8.415,58.186c-0.495,2.079-0.313,4.263,0.523,6.23c1.53,3.602,2.833,7.314,3.867,11.016    c1.06,3.813,1.871,7.714,2.411,11.597c2.302,16.555-2.686,32.859-14.046,45.908c-12.803,14.706-31.91,23.141-52.425,23.141    h-72.223c-36.954,0-67.02-27.447-67.02-61.184c0-2.59,0.185-5.239,0.548-7.866c1.077-7.742,3.189-15.347,6.279-22.604    c0.839-1.969,1.023-4.155,0.527-6.237c-2.271-9.526-4.133-19.253-5.531-28.91c-1.403-9.685-2.375-19.533-2.888-29.279    c-0.198-3.72,1.34-7.209,4.221-9.573c2.11-1.732,4.674-2.64,7.313-2.64c0.899,0,1.808,0.105,2.711,0.32    c0.066,0.018,0.133,0.036,0.199,0.053c16.276,4.146,32.388,9.624,47.884,16.279c2.271,0.977,4.34,1.891,6.323,2.795    c2.111,0.963,4.491,1.16,6.729,0.564c4.607-1.23,9.349-2.17,14.088-2.794c4.857-0.635,9.813-0.957,14.726-0.957    c9.794,0,19.487,1.262,28.813,3.751c2.238,0.594,4.614,0.399,6.722-0.56c17.475-7.945,35.716-14.365,54.218-19.079    c0.063-0.016,0.125-0.032,0.186-0.05c0.871-0.206,1.737-0.314,2.607-0.322c0.044,0,0.086,0,0.13,0    c2.989,0,5.941,1.226,8.115,3.374c2.209,2.183,3.425,5.089,3.425,8.184C360.212,261.106,360.207,261.312,360.196,261.522z" data-original="#000000" class="active-path" data-old_color="#f1cdb3" fill="#f1cdb3"/>
	</g>
</g><g>
	<g>
		<path d="M274.755,371.765c-4.827,0-8.755-3.927-8.755-8.754c0-5.522-4.477-10-10-10c-5.523,0-10,4.478-10,10v0.365    c0,4.827-3.927,8.755-8.754,8.755c-5.523,0-10,4.478-10,10s4.477,10,10,10c7.26,0,13.898-2.707,18.964-7.162    c5.01,4.238,11.484,6.796,18.545,6.796c5.522,0,10-4.478,10-10C284.755,376.242,280.277,371.765,274.755,371.765z" data-original="#000000" class="active-path" data-old_color="#f1cdb3" fill="#f1cdb3"/>
	</g>
</g><g>
	<g>
		<path d="M221.044,325.686l-14.854-6.806c-2.645-1.213-5.686-1.214-8.33,0l-14.855,6.806c-5.021,2.3-7.227,8.235-4.926,13.256    c1.682,3.672,5.307,5.838,9.097,5.837c1.394,0,2.81-0.292,4.159-0.911l10.689-4.897l10.689,4.897    c5.018,2.303,10.956,0.095,13.256-4.926C228.271,333.921,226.064,327.985,221.044,325.686z" data-original="#000000" class="active-path" data-old_color="#f1cdb3" fill="#f1cdb3"/>
	</g>
</g><g>
	<g>
		<path d="M328.995,325.685l-14.854-6.806c-2.645-1.213-5.685-1.213-8.33,0l-14.854,6.806c-5.021,2.3-7.227,8.235-4.926,13.256    c2.301,5.023,8.236,7.23,13.256,4.926l10.689-4.897l10.689,4.897c1.35,0.619,2.766,0.911,4.159,0.911    c3.79,0,7.415-2.166,9.097-5.837C336.222,333.92,334.017,327.985,328.995,325.685z" data-original="#000000" class="active-path" data-old_color="#f1cdb3" fill="#f1cdb3"/>
	</g>
</g></g> </svg>
