<?xml version="1.0"?>
<svg xmlns="http://www.w3.org/2000/svg" xmlns:xlink="http://www.w3.org/1999/xlink" version="1.1" id="Capa_1" x="0px" y="0px" viewBox="0 0 437.979 437.979" style="enable-background:new 0 0 437.979 437.979;" xml:space="preserve" width="512px" height="512px"><g><g>
	<path d="M430.479,78.746H7.5c-4.143,0-7.5,3.358-7.5,7.5v265.487c0,4.142,3.357,7.5,7.5,7.5h422.979c4.143,0,7.5-3.358,7.5-7.5   V86.246C437.979,82.104,434.621,78.746,430.479,78.746z M356.706,240.923c1.173,5.316,2.386,10.813,0.809,13.54   c-1.694,2.927-7.169,4.629-12.463,6.275c-4.177,1.298-8.495,2.641-12.344,4.868c-3.719,2.152-6.936,5.167-10.046,8.083   c-4.282,4.015-8.326,7.806-11.982,7.806c-3.657,0-7.701-3.792-11.982-7.806c-3.11-2.916-6.327-5.932-10.046-8.083   c-3.849-2.227-8.167-3.569-12.344-4.868c-5.294-1.646-10.769-3.348-12.462-6.275c-1.578-2.727-0.365-8.224,0.808-13.541   c0.963-4.364,1.958-8.876,1.958-13.495s-0.995-9.132-1.958-13.496c-1.173-5.316-2.386-10.813-0.808-13.541   c1.693-2.927,7.168-4.629,12.462-6.275c4.177-1.298,8.495-2.641,12.344-4.868c3.719-2.152,6.936-5.167,10.046-8.083   c4.281-4.014,8.325-7.806,11.982-7.806c3.656,0,7.701,3.792,11.982,7.806c3.11,2.916,6.327,5.931,10.046,8.083   c3.849,2.226,8.167,3.569,12.344,4.867c5.294,1.646,10.769,3.348,12.462,6.275c1.578,2.727,0.365,8.224-0.808,13.54   c-0.963,4.364-1.958,8.876-1.958,13.496S355.743,236.559,356.706,240.923z M335.027,172.178c-0.69-0.63-1.391-1.286-2.105-1.955   c-5.638-5.286-12.653-11.864-22.242-11.864s-16.605,6.578-22.242,11.864c-2.607,2.444-5.07,4.753-7.298,6.042   c-2.395,1.385-5.741,2.426-9.285,3.527c-7.671,2.385-16.364,5.087-20.993,13.087c-4.498,7.775-2.563,16.546-0.855,24.284   c0.825,3.743,1.605,7.28,1.605,10.264s-0.78,6.521-1.605,10.264c-1.481,6.711-3.126,14.197-0.605,21.138l-30.416,30.783   L25.452,93.746h387.067L335.027,172.178z M128.116,218.989L15,333.467V104.509L128.116,218.989z M138.659,229.659l74.991,75.895   c1.409,1.426,3.33,2.229,5.335,2.229s3.926-0.803,5.335-2.229l35.009-35.432c3.94,2.261,8.38,3.65,12.526,4.939   c3.544,1.102,6.891,2.142,9.285,3.527c2.228,1.289,4.69,3.598,7.298,6.042c5.637,5.286,12.653,11.864,22.242,11.864   c9.588,0,16.604-6.578,22.242-11.864c2.607-2.445,5.069-4.753,7.298-6.043c1.451-0.84,3.255-1.552,5.238-2.228l67.063,67.872H25.45   L138.659,229.659z M360.965,270.713c3.781-1.982,7.182-4.675,9.533-8.738c4.498-7.775,2.563-16.546,0.855-24.284   c-0.825-3.743-1.605-7.28-1.605-10.264s0.78-6.521,1.605-10.264c1.708-7.738,3.643-16.508-0.856-24.284   c-4.629-8-13.322-10.702-20.993-13.087c-0.235-0.073-0.466-0.145-0.699-0.218l74.174-75.073v228.973L360.965,270.713z" data-original="#000000" class="active-path" data-old_color="#f1cdb3" fill="#f1cdb3"/>
	<path d="M310.68,189.242c-21.056,0-38.186,17.13-38.186,38.185s17.13,38.185,38.186,38.185s38.186-17.13,38.186-38.185   S331.735,189.242,310.68,189.242z M310.68,250.612c-12.784,0-23.186-10.401-23.186-23.185s10.401-23.185,23.186-23.185   s23.186,10.401,23.186,23.185S323.464,250.612,310.68,250.612z" data-original="#000000" class="active-path" data-old_color="#f1cdb3" fill="#f1cdb3"/>
</g></g> </svg>
