<?xml version="1.0"?>
<svg xmlns="http://www.w3.org/2000/svg" xmlns:xlink="http://www.w3.org/1999/xlink" version="1.1" id="Capa_1" x="0px" y="0px" viewBox="0 0 512.001 512.001" style="enable-background:new 0 0 512.001 512.001;" xml:space="preserve" width="512px" height="512px"><g><g>
	<g>
		<path d="M488.935,85.623c-13.304-10.704-32.065-20.222-55.768-28.288c-47.473-16.157-110.393-25.055-177.169-25.055    S126.303,41.179,78.83,57.335c-23.702,8.066-42.464,17.584-55.768,28.288C7.76,97.937,0,111.523,0,126.002v111.922    c0,14.48,7.76,28.066,23.063,40.379c13.304,10.704,32.065,20.222,55.768,28.288C123.926,321.939,182.963,330.73,246,331.573    v40.125h-34.485c-3.82-20.186-21.591-35.498-42.871-35.498c-24.059,0-43.631,19.573-43.631,43.63    c0,10.46,3.71,20.364,10.274,28.13c-6.564,7.766-10.274,17.671-10.274,28.13c0,24.058,19.572,43.63,43.631,43.63    c21.28,0,39.051-15.313,42.871-35.498h88.971c3.82,20.186,21.591,35.498,42.871,35.498c24.059,0,43.631-19.573,43.631-43.63    c0-10.46-3.71-20.364-10.274-28.13c6.564-7.766,10.274-17.671,10.274-28.13c0-24.058-19.572-43.63-43.631-43.63    c-21.28,0-39.051,15.313-42.871,35.498h-34.485v-40.125c63.037-0.843,122.074-9.634,167.169-24.982    c23.702-8.066,42.464-17.584,55.768-28.288c15.303-12.313,23.063-25.899,23.063-40.379V126.002    C511.998,111.523,504.238,97.937,488.935,85.623z M309.779,391.699c2.748,0,5.375-1.131,7.264-3.127    c1.889-1.996,2.873-4.681,2.721-7.425c-0.023-0.436-0.039-0.874-0.039-1.316c0-13.03,10.601-23.63,23.631-23.63    c13.03,0,23.631,10.601,23.631,23.63c0,7.985-3.998,15.375-10.694,19.77c-2.817,1.849-4.514,4.991-4.514,8.36    c0,3.369,1.696,6.512,4.514,8.36c6.696,4.395,10.694,11.785,10.694,19.77c0,13.03-10.601,23.63-23.631,23.63    c-13.03,0-23.631-10.601-23.631-23.63c0-0.442,0.016-0.88,0.039-1.316c0.152-2.744-0.832-5.429-2.721-7.425    c-1.889-1.996-4.516-3.127-7.264-3.127h-107.56c-2.748,0-5.375,1.131-7.264,3.127c-1.889,1.996-2.873,4.681-2.721,7.425    c0.023,0.436,0.039,0.874,0.039,1.316c0,13.03-10.601,23.63-23.631,23.63c-13.03,0-23.631-10.601-23.631-23.63    c0-7.985,3.998-15.375,10.694-19.77c2.817-1.849,4.514-4.991,4.514-8.36c0-3.369-1.696-6.512-4.514-8.36    c-6.696-4.395-10.694-11.785-10.694-19.77c0-13.03,10.601-23.63,23.631-23.63c13.03,0,23.631,10.601,23.631,23.63    c0,0.442-0.016,0.88-0.039,1.316c-0.152,2.744,0.832,5.429,2.721,7.425c1.889,1.996,4.516,3.127,7.264,3.127H309.779z     M255.999,311.647c-13.281,0-24.086-10.805-24.086-24.086s10.805-24.086,24.086-24.086s24.086,10.805,24.086,24.086    S269.28,311.647,255.999,311.647z M491.998,237.924c0,31.64-79.799,66.557-198.481,72.755c4.16-6.726,6.568-14.645,6.568-23.119    c0-3.151-0.339-6.224-0.97-9.19c38.811-2.545,74.863-8.336,104.935-16.917c5.31-1.516,8.388-7.049,6.872-12.36    c-1.516-5.311-7.047-8.388-12.36-6.872c-30.861,8.806-68.501,14.549-109.101,16.685c-8.092-9.436-20.086-15.431-33.462-15.431    c-13.446,0-25.498,6.058-33.591,15.581c-27.519-1.313-53.67-4.251-77.765-8.784c-5.422-1.023-10.655,2.551-11.676,7.978    c-1.021,5.428,2.551,10.655,7.979,11.677c22.461,4.226,46.596,7.117,71.891,8.647c-0.604,2.903-0.923,5.908-0.923,8.987    c0,8.473,2.408,16.392,6.568,23.119C99.799,304.482,20,269.565,20,237.924v-74.112c0.044,0.038,0.092,0.076,0.136,0.114    c0.944,0.824,1.917,1.643,2.926,2.455c1.304,1.049,2.677,2.084,4.085,3.11c0.007,0.005,0.014,0.01,0.021,0.015    c0.746,0.543,1.507,1.083,2.282,1.62c0.115,0.079,0.231,0.159,0.346,0.238c0.729,0.501,1.468,1,2.222,1.495    c0.152,0.1,0.308,0.2,0.462,0.3c0.761,0.495,1.531,0.989,2.317,1.478c0.112,0.069,0.227,0.139,0.339,0.208    c11.818,7.308,26.44,13.952,43.693,19.824c47.473,16.157,110.392,25.055,177.169,25.055s129.696-8.898,177.169-25.055    c17.255-5.872,31.878-12.517,43.697-19.826c0.111-0.068,0.225-0.137,0.335-0.205c0.787-0.49,1.558-0.984,2.32-1.48    c0.153-0.1,0.308-0.199,0.46-0.298c0.754-0.495,1.494-0.994,2.223-1.495c0.115-0.079,0.231-0.159,0.346-0.238    c0.775-0.537,1.536-1.077,2.282-1.62c0.007-0.005,0.014-0.01,0.021-0.015c1.409-1.026,2.781-2.061,4.085-3.11    c1.01-0.813,1.982-1.632,2.926-2.455c0.044-0.038,0.092-0.076,0.136-0.114V237.924z M64.25,167.57    c8.711-3.982,20.626-8.555,36.464-12.996c43.033-12.066,98.182-18.71,155.285-18.71s112.252,6.645,155.284,18.71    c15.839,4.44,27.755,9.013,36.465,12.996c-41.384,18.443-109.127,32.155-191.749,32.155S105.634,186.012,64.25,167.57z     M491.935,127.468c-0.009,0.121-0.02,0.242-0.032,0.363c-0.044,0.459-0.1,0.918-0.177,1.379c-0.005,0.03-0.008,0.061-0.013,0.091    c-0.084,0.487-0.192,0.976-0.312,1.464c-0.03,0.12-0.061,0.241-0.093,0.361c-0.114,0.432-0.242,0.863-0.384,1.295    c-0.028,0.084-0.054,0.168-0.082,0.251c-0.144,0.42-0.308,0.84-0.478,1.261c-0.084,0.205-0.169,0.409-0.258,0.613    c-0.106,0.243-0.221,0.485-0.336,0.728c-0.23,0.484-0.472,0.966-0.734,1.443c-0.023,0.043-0.046,0.086-0.07,0.128    c-4.161,7.51-12.016,14.079-19.816,19.209c-10.358-5.967-26.97-13.588-52.466-20.737C371.943,122.773,314.878,115.866,256,115.866    c-58.878,0-115.942,6.908-160.685,19.452c-25.495,7.148-42.106,14.769-52.465,20.737c-7.799-5.129-15.654-11.699-19.816-19.209    c-0.024-0.043-0.047-0.086-0.07-0.128c-0.262-0.478-0.504-0.96-0.735-1.445c-0.114-0.242-0.229-0.483-0.334-0.725    c-0.09-0.204-0.175-0.409-0.259-0.614c-0.171-0.42-0.334-0.84-0.478-1.26c-0.029-0.083-0.055-0.168-0.083-0.251    c-0.143-0.432-0.27-0.864-0.384-1.295c-0.032-0.12-0.063-0.24-0.093-0.361c-0.121-0.488-0.228-0.977-0.312-1.464    c-0.005-0.03-0.008-0.061-0.013-0.091c-0.077-0.46-0.133-0.92-0.177-1.379c-0.012-0.121-0.023-0.242-0.032-0.363    C20.026,126.979,20,126.49,20,126.002c0-34.87,96.921-73.722,235.999-73.722s235.999,38.852,235.999,73.722    C491.998,126.49,491.972,126.979,491.935,127.468z" data-original="#000000" class="active-path" data-old_color="#f1cdb3" fill="#f1cdb3"/>
	</g>
</g><g>
	<g>
		<path d="M411.107,97.502c-0.13-0.64-0.319-1.27-0.569-1.87c-0.25-0.6-0.561-1.18-0.92-1.73c-0.36-0.54-0.78-1.06-1.24-1.52    c-0.46-0.46-0.98-0.88-1.521-1.24c-0.55-0.36-1.13-0.67-1.729-0.92c-0.6-0.25-1.23-0.44-1.87-0.57c-1.29-0.26-2.62-0.26-3.91,0    c-0.64,0.13-1.26,0.32-1.87,0.57c-0.6,0.25-1.18,0.56-1.72,0.92c-0.55,0.36-1.06,0.78-1.53,1.24c-0.46,0.46-0.87,0.98-1.239,1.52    c-0.36,0.55-0.671,1.13-0.921,1.73c-0.25,0.6-0.439,1.23-0.569,1.87c-0.13,0.65-0.19,1.3-0.19,1.95c0,0.66,0.061,1.31,0.19,1.96    c0.13,0.64,0.319,1.27,0.569,1.87s0.561,1.18,0.921,1.73c0.369,0.54,0.779,1.05,1.239,1.52c0.471,0.46,0.981,0.87,1.53,1.24    c0.54,0.36,1.12,0.67,1.72,0.92c0.61,0.25,1.231,0.44,1.87,0.57c0.65,0.13,1.311,0.2,1.96,0.2c0.65,0,1.311-0.07,1.95-0.2    c0.64-0.13,1.271-0.32,1.87-0.57c0.6-0.25,1.18-0.56,1.729-0.92c0.54-0.37,1.061-0.78,1.521-1.24c0.46-0.47,0.88-0.98,1.24-1.52    c0.359-0.55,0.67-1.13,0.92-1.73c0.25-0.6,0.439-1.23,0.569-1.87c0.131-0.65,0.2-1.3,0.2-1.96    C411.307,98.801,411.238,98.151,411.107,97.502z" data-original="#000000" class="active-path" data-old_color="#f1cdb3" fill="#f1cdb3"/>
	</g>
</g><g>
	<g>
		<path d="M371.054,82.289c-34.453-6.482-73.668-9.909-113.403-9.909c-54.995,0-108.16,6.528-149.701,18.383    c-5.31,1.516-8.388,7.049-6.872,12.36c1.252,4.395,5.256,7.259,9.61,7.259c0.908,0,1.832-0.124,2.749-0.386    c39.806-11.359,91.021-17.615,144.213-17.615c38.516,0,76.451,3.307,109.705,9.564c5.43,1.019,10.655-2.551,11.677-7.979    C380.054,88.538,376.481,83.312,371.054,82.289z" data-original="#000000" class="active-path" data-old_color="#f1cdb3" fill="#f1cdb3"/>
	</g>
</g><g>
	<g>
		<path d="M120.499,250.812c-0.13-0.64-0.32-1.27-0.57-1.88c-0.25-0.6-0.56-1.18-0.92-1.72c-0.37-0.55-0.78-1.06-1.25-1.52    c-0.46-0.46-0.97-0.88-1.52-1.25c-0.54-0.36-1.12-0.66-1.721-0.91c-0.609-0.25-1.239-0.45-1.87-0.57    c-1.29-0.26-2.619-0.26-3.909,0c-0.641,0.12-1.271,0.32-1.87,0.57c-0.61,0.25-1.19,0.55-1.73,0.91c-0.55,0.37-1.06,0.79-1.52,1.25    c-0.46,0.46-0.88,0.97-1.24,1.52c-0.36,0.54-0.67,1.12-0.92,1.72c-0.25,0.61-0.44,1.24-0.57,1.88c-0.13,0.64-0.2,1.3-0.2,1.95    c0,0.65,0.07,1.31,0.2,1.95c0.13,0.64,0.32,1.27,0.57,1.87c0.25,0.61,0.56,1.19,0.92,1.73c0.36,0.55,0.78,1.059,1.24,1.52    c0.46,0.46,0.97,0.88,1.52,1.24c0.54,0.37,1.12,0.67,1.73,0.92c0.6,0.25,1.229,0.45,1.87,0.57c0.64,0.13,1.3,0.2,1.949,0.2    c0.65,0,1.311-0.07,1.96-0.2c0.631-0.12,1.261-0.32,1.87-0.57c0.601-0.25,1.181-0.55,1.721-0.92c0.55-0.36,1.06-0.78,1.52-1.24    c0.47-0.461,0.88-0.97,1.25-1.52c0.36-0.54,0.67-1.12,0.92-1.73c0.25-0.6,0.44-1.23,0.57-1.87c0.13-0.64,0.189-1.3,0.189-1.95    C120.688,252.111,120.628,251.452,120.499,250.812z" data-original="#000000" class="active-path" data-old_color="#f1cdb3" fill="#f1cdb3"/>
	</g>
</g></g> </svg>
