<?xml version="1.0"?>
<svg xmlns="http://www.w3.org/2000/svg" xmlns:xlink="http://www.w3.org/1999/xlink" version="1.1" id="Capa_1" x="0px" y="0px" viewBox="0 0 512 512" style="enable-background:new 0 0 512 512;" xml:space="preserve" width="512px" height="512px"><g><g>
	<g>
		<path d="M463.452,301.391c-27.946-9.511-64.904-14.749-104.064-14.749c-2.448,0-4.887,0.02-7.315,0.061    c-36.43,0.61-70.55,5.771-96.75,14.688c-4.542,1.546-8.658,3.145-12.421,4.781V256V146.374    c0-66.968-54.482-121.451-121.451-121.451S0,79.406,0,146.374V256v109.626c0,66.968,54.482,121.451,121.451,121.451    c21.243,0,42.152-5.568,60.469-16.102c11.549-6.642,21.925-15.173,30.703-25.139c6.381,8.963,19.015,18.431,42.701,26.492    c27.946,9.511,64.903,14.749,104.063,14.749s76.118-5.238,104.064-14.749C503.577,458.672,512,440.979,512,428.541v-83.363    C512,332.74,503.577,315.047,463.452,301.391z M226.777,345.178c0-0.221,0.018-0.442,0.039-0.664    c0.016-0.147,0.035-0.295,0.061-0.446c0.005-0.033,0.012-0.066,0.017-0.099c0.339-1.807,1.426-3.906,3.427-6.181    c0.012-0.014,0.025-0.028,0.038-0.042c0.303-0.343,0.634-0.691,0.979-1.042c0.231-0.232,0.462-0.465,0.709-0.697    c0.095-0.09,0.193-0.181,0.291-0.272c1.676-1.545,3.695-3.097,6.025-4.615c0.04-0.026,0.074-0.058,0.113-0.084    c5.467-3.551,13.07-7.233,23.292-10.712c25.926-8.823,60.595-13.683,97.62-13.683c33.735,0.001,65.49,4.046,90.481,11.437    l-214.01,39.437c-6.425-4.73-9.071-9.113-9.082-12.316V345.178z M222.902,317.534c-7.709,5.906-12.006,11.907-14.184,17.475    c-0.782,1.999-1.285,3.939-1.586,5.802v0.001c-0.073,0.451-0.134,0.897-0.183,1.338c-0.008,0.07-0.016,0.14-0.023,0.21    c-0.041,0.396-0.073,0.789-0.096,1.176c-0.005,0.086-0.012,0.172-0.017,0.258c-0.024,0.467-0.039,0.929-0.039,1.383v75.359    c-18.794,29.197-50.486,46.541-85.323,46.541C65.511,467.077,20,421.566,20,365.626V266h20v54c0,5.523,4.478,10,10,10    s10-4.477,10-10v-54h162.902V317.534z M222.902,246H60v-99.626c0-33.884,27.566-61.451,61.451-61.451s61.451,27.567,61.451,61.451    c0,5.523,4.478,10,10,10c5.523,0,10-4.477,10-10c0-44.912-36.539-81.451-81.451-81.451C76.539,64.923,40,101.462,40,146.374V246    H20v-99.626c0-55.94,45.511-101.451,101.451-101.451s101.451,45.511,101.451,101.451V246z M492,428.541    c0,5.971-9.164,16.063-34.992,24.854c-25.926,8.823-60.595,13.683-97.62,13.683c-37.025,0-71.694-4.859-97.62-13.683    c-25.828-8.79-34.992-18.882-34.992-24.854v-5.123c0-0.005,0.001-0.009,0.001-0.014v-47.819c7.004,4.66,16.29,9.209,28.547,13.38    c27.946,9.511,64.904,14.749,104.064,14.749c39.16,0,76.118-5.238,104.064-14.749c12.257-4.172,21.544-8.72,28.548-13.381V428.541    z M457.008,370.031c-25.926,8.823-60.594,13.683-97.62,13.683c-34.22,0-66.41-4.159-91.561-11.753l214.52-39.531    c6.85,4.897,9.653,9.451,9.653,12.748C492,351.149,482.836,361.241,457.008,370.031z" data-original="#000000" class="active-path" data-old_color="#f1cdb3" fill="#f1cdb3"/>
	</g>
</g><g>
	<g>
		<path d="M57.069,352.62c-0.46-0.46-0.969-0.88-1.519-1.24c-0.54-0.36-1.12-0.67-1.73-0.92c-0.6-0.25-1.229-0.44-1.869-0.57    c-1.29-0.26-2.62-0.26-3.9,0c-0.64,0.13-1.27,0.32-1.88,0.57c-0.601,0.25-1.18,0.56-1.72,0.92c-0.551,0.36-1.061,0.78-1.521,1.24    c-0.46,0.46-0.88,0.97-1.24,1.52c-0.37,0.54-0.67,1.12-0.92,1.73c-0.25,0.6-0.45,1.23-0.569,1.87c-0.131,0.64-0.2,1.3-0.2,1.95    c0,0.66,0.069,1.31,0.2,1.96c0.119,0.64,0.319,1.27,0.569,1.87c0.25,0.6,0.55,1.18,0.92,1.73c0.36,0.54,0.78,1.05,1.24,1.52    c0.46,0.46,0.97,0.87,1.521,1.24c0.54,0.36,1.119,0.67,1.72,0.92c0.61,0.25,1.24,0.44,1.88,0.57c0.64,0.13,1.3,0.19,1.95,0.19    c0.649,0,1.31-0.06,1.95-0.19s1.27-0.32,1.869-0.57c0.61-0.25,1.19-0.56,1.73-0.92c0.55-0.37,1.06-0.78,1.52-1.24    c0.461-0.47,0.881-0.98,1.24-1.52c0.36-0.55,0.67-1.13,0.92-1.73c0.25-0.6,0.45-1.23,0.58-1.87c0.13-0.65,0.19-1.3,0.19-1.96    C60,357.06,58.93,354.48,57.069,352.62z" data-original="#000000" class="active-path" data-old_color="#f1cdb3" fill="#f1cdb3"/>
	</g>
</g></g> </svg>
