<?xml version="1.0"?>
<svg xmlns="http://www.w3.org/2000/svg" xmlns:xlink="http://www.w3.org/1999/xlink" version="1.1" id="Layer_1" x="0px" y="0px" viewBox="0 0 512 512" style="enable-background:new 0 0 512 512;" xml:space="preserve" width="512px" height="512px"><g><g>
	<g>
		<g>
			<path d="M322.783,146.615v-46.441c0-6.147-4.983-11.13-11.13-11.13h-8.348V11.13c0-6.147-4.983-11.13-11.13-11.13h-72.348     c-6.147,0-11.13,4.983-11.13,11.13v77.913h-8.348c-6.147,0-11.13,4.983-11.13,11.13v46.441     c-39.087,15.586-66.783,53.816-66.783,98.395v255.86c0,6.147,4.983,11.13,11.13,11.13h244.87c6.147,0,11.13-4.983,11.13-11.13     V245.01C389.565,200.43,361.869,162.2,322.783,146.615z M230.957,22.261h50.087v66.783h-50.087V22.261z M211.478,111.304h89.043     v27.826h-89.043V111.304z M367.304,489.739H144.696V245.01c0-46.108,37.511-83.619,83.618-83.619h55.372     c46.108,0,83.618,37.511,83.618,83.619V489.739z" data-original="#000000" class="active-path" data-old_color="#f1cdb3" fill="#f1cdb3"/>
			<path d="M328.348,233.739H183.652c-6.147,0-11.13,4.983-11.13,11.13v205.913c0,6.147,4.983,11.13,11.13,11.13h144.696     c6.147,0,11.13-4.983,11.13-11.13v-69.95c0-6.147-4.983-11.13-11.13-11.13s-11.13,4.983-11.13,11.13v58.82H194.783V256h122.435     v35.232c0,6.147,4.983,11.13,11.13,11.13s11.13-4.983,11.13-11.13V244.87C339.478,238.722,334.495,233.739,328.348,233.739z" data-original="#000000" class="active-path" data-old_color="#f1cdb3" fill="#f1cdb3"/>
			<path d="M328.348,324.816c-6.147,0-11.13,4.983-11.13,11.13v1.113c0,6.147,4.983,11.13,11.13,11.13s11.13-4.983,11.13-11.13     v-1.113C339.478,329.799,334.495,324.816,328.348,324.816z" data-original="#000000" class="active-path" data-old_color="#f1cdb3" fill="#f1cdb3"/>
			<path d="M244.805,351.157c-18.412,0-33.391,14.979-33.391,33.391c0,18.412,14.979,33.391,33.391,33.391     c18.412,0,33.391-14.979,33.391-33.391C278.196,366.137,263.217,351.157,244.805,351.157z M244.805,395.679     c-6.137,0-11.13-4.993-11.13-11.13s4.993-11.13,11.13-11.13c6.137,0,11.13,4.993,11.13,11.13S250.943,395.679,244.805,395.679z" data-original="#000000" class="active-path" data-old_color="#f1cdb3" fill="#f1cdb3"/>
			<path d="M303.287,307.066c0-18.412-14.979-33.391-33.391-33.391c-18.412,0-33.391,14.979-33.391,33.391     c0,18.412,14.979,33.391,33.391,33.391C288.307,340.458,303.287,325.478,303.287,307.066z M269.895,318.197     c-6.137,0-11.13-4.993-11.13-11.13s4.993-11.13,11.13-11.13c6.137,0,11.13,4.993,11.13,11.13S276.034,318.197,269.895,318.197z" data-original="#000000" class="active-path" data-old_color="#f1cdb3" fill="#f1cdb3"/>
		</g>
	</g>
</g></g> </svg>
