<?xml version="1.0"?>
<svg xmlns="http://www.w3.org/2000/svg" xmlns:xlink="http://www.w3.org/1999/xlink" version="1.1" id="Capa_1" x="0px" y="0px" viewBox="0 0 511.999 511.999" style="enable-background:new 0 0 511.999 511.999;" xml:space="preserve" width="512px" height="512px"><g><g>
	<g>
		<path d="M509.069,135.667L376.333,2.928c-3.905-3.904-10.235-3.904-14.143,0l-35.35,35.348c-1.875,1.875-2.929,4.419-2.929,7.071    s1.054,5.196,2.929,7.071l41.993,41.992l-39.756,39.756l-61.193-61.193c-3.906-3.905-10.237-3.904-14.143,0l-40.605,40.605    c-1.875,1.875-2.929,4.419-2.929,7.071c0,2.652,1.054,5.196,2.929,7.071l12.896,12.896L60.29,306.364    c-15.23,15.23-15.23,40.013,0,55.246l12.725,12.725l-23.332,23.332c-1.876,1.876-2.929,4.419-2.929,7.071    c0,2.652,1.054,5.196,2.929,7.071l18.182,18.183L2.93,494.926c-3.905,3.905-3.905,10.237,0,14.143    c1.953,1.953,4.512,2.929,7.071,2.929s5.119-0.976,7.071-2.929l64.936-64.936l18.183,18.183c1.875,1.875,4.419,2.929,7.071,2.929    c2.652,0,5.196-1.054,7.071-2.929l23.332-23.332l12.725,12.725c7.378,7.378,17.189,11.441,27.623,11.441    c10.434,0,20.245-4.063,27.623-11.441l165.744-165.743l12.896,12.896c1.953,1.953,4.512,2.929,7.071,2.929    c2.56,0,5.118-0.976,7.071-2.929l40.604-40.605c1.875-1.875,2.929-4.419,2.929-7.071c0-2.652-1.054-5.196-2.929-7.071    l-61.193-61.193l39.756-39.756l41.992,41.992c1.953,1.953,4.512,2.929,7.071,2.929c2.56,0,5.118-0.976,7.071-2.929l35.349-35.349    C512.975,145.905,512.975,139.573,509.069,135.667z M211.08,183.859l46.266,46.266c1.953,1.953,4.512,2.929,7.071,2.929    c2.56,0,5.118-0.976,7.071-2.929c3.905-3.905,3.905-10.237,0-14.142l-46.266-46.266l14.953-14.953l86.09,86.09l-45.733,45.733    l-86.091-86.091L211.08,183.859z M107.262,441.102l-18.178-18.177c-0.002-0.002-0.003-0.003-0.005-0.005s-0.003-0.003-0.005-0.005    l-18.178-18.178l16.262-16.26l36.364,36.364L107.262,441.102z M191.492,437.566c-7.432,7.432-19.527,7.433-26.959,0l-90.101-90.1    c-7.433-7.433-7.433-19.528,0-26.96l14.244-14.244l24.624,24.624c1.953,1.953,4.512,2.929,7.071,2.929s5.119-0.976,7.071-2.929    c3.905-3.905,3.905-10.237,0-14.143l-24.624-24.624l16.457-16.458l46.265,46.265c1.953,1.953,4.512,2.929,7.071,2.929    s5.119-0.977,7.071-2.929c3.905-3.905,3.905-10.237,0-14.142l-46.266-46.266l16.458-16.458l24.624,24.624    c1.953,1.953,4.512,2.929,7.071,2.929s5.119-0.976,7.071-2.929c3.905-3.905,3.905-10.237,0-14.143l-24.624-24.624l16.278-16.278    l86.091,86.09l-65.031,65.032c-3.905,3.905-3.905,10.237,0,14.143c1.953,1.953,4.512,2.929,7.071,2.929s5.119-0.977,7.071-2.929    l65.031-65.032l16.826,16.826L191.492,437.566z M311.503,317.557l-16.826-16.828l45.733-45.734l16.826,16.826L311.503,317.557z     M417.809,251.186l-26.462,26.462c-0.002-0.001-156.995-156.995-156.997-156.996l26.462-26.462L417.809,251.186z M363.688,168.78    l-20.469-20.469l39.756-39.757l20.469,20.469L363.688,168.78z M466.651,163.945L348.055,45.348l21.207-21.207l118.596,118.596    L466.651,163.945z" data-original="#000000" class="active-path" data-old_color="#f1cdb3" fill="#f1cdb3"/>
	</g>
</g><g>
	<g>
		<path d="M190.428,398.683c-0.12-0.64-0.32-1.27-0.57-1.87c-0.25-0.61-0.56-1.19-0.92-1.73c-0.36-0.55-0.78-1.06-1.24-1.52    s-0.97-0.88-1.52-1.24c-0.54-0.36-1.12-0.67-1.73-0.92c-0.6-0.25-1.23-0.44-1.87-0.57c-1.29-0.26-2.61-0.26-3.9,0    c-0.64,0.13-1.27,0.32-1.87,0.57c-0.61,0.25-1.19,0.56-1.73,0.92c-0.55,0.36-1.06,0.78-1.52,1.24s-0.88,0.97-1.24,1.52    c-0.36,0.539-0.67,1.12-0.92,1.73c-0.25,0.6-0.45,1.23-0.57,1.87c-0.13,0.64-0.2,1.3-0.2,1.95s0.07,1.31,0.2,1.96    c0.12,0.63,0.32,1.26,0.57,1.87c0.25,0.6,0.56,1.18,0.92,1.72c0.36,0.55,0.78,1.06,1.24,1.52c0.46,0.46,0.97,0.88,1.52,1.25    c0.54,0.36,1.12,0.67,1.73,0.92c0.6,0.25,1.23,0.44,1.87,0.57s1.3,0.19,1.95,0.19s1.31-0.06,1.95-0.19    c0.64-0.13,1.27-0.32,1.87-0.57c0.61-0.25,1.19-0.56,1.73-0.92c0.55-0.37,1.06-0.79,1.52-1.25c0.46-0.46,0.88-0.97,1.24-1.52    c0.36-0.54,0.67-1.12,0.92-1.72c0.25-0.61,0.45-1.24,0.57-1.87c0.13-0.65,0.2-1.31,0.2-1.96    C190.628,399.983,190.558,399.323,190.428,398.683z" data-original="#000000" class="active-path" data-old_color="#f1cdb3" fill="#f1cdb3"/>
	</g>
</g></g> </svg>
