<?xml version="1.0"?>
<svg xmlns="http://www.w3.org/2000/svg" xmlns:xlink="http://www.w3.org/1999/xlink" version="1.1" id="Capa_1" x="0px" y="0px" viewBox="0 0 427.922 427.922" style="enable-background:new 0 0 427.922 427.922;" xml:space="preserve" width="512px" height="512px" class=""><g><g>
	<path d="M427.345,139.789l-26.06-62.542c-0.902-2.167-2.769-3.786-5.041-4.375l-31.323-8.121   c-91.706-23.776-210.218-23.775-301.92,0l-31.324,8.121c-2.272,0.589-4.139,2.208-5.041,4.375L0.577,139.789   c-0.718,1.722-0.768,3.65-0.141,5.407l10.423,29.186c1.252,3.505,4.882,5.563,8.534,4.832l99.025-19.805   c3.05-0.61,5.406-3.039,5.925-6.105l8.575-50.781c47.199-11.86,114.886-11.86,162.083,0l8.576,50.782   c0.519,3.067,2.875,5.495,5.925,6.105l99.024,19.805c0.494,0.099,0.987,0.147,1.475,0.147c3.114,0,5.977-1.948,7.06-4.979   l10.424-29.186C428.112,143.439,428.062,141.511,427.345,139.789z M22.807,163.235l-5.35-14.981l95.913-20.047l-2.956,17.507   L22.807,163.235z M124.334,89.273c-2.81,0.775-4.915,3.107-5.4,5.981l-2.882,17.068L19.897,132.42l19.152-45.963l27.716-7.186   c89.417-23.182,204.972-23.183,294.393,0l27.716,7.186l19.152,45.963l-96.155-20.098l-2.882-17.068   c-0.485-2.873-2.591-5.206-5.4-5.981C252.491,75.172,175.43,75.172,124.334,89.273z M405.114,163.235l-87.605-17.521l-2.957-17.507   l95.913,20.047L405.114,163.235z" data-original="#000000" class="active-path" data-old_color="#f1cdb3" fill="#f1cdb3"/>
	<path d="M356.139,183.878c-0.637-2.865-2.885-5.096-5.755-5.709l-51.079-10.918l-6.431-41.886c-0.562-3.66-3.71-6.362-7.413-6.362   h-20v-9.82c0-4.142-3.357-7.5-7.5-7.5s-7.5,3.358-7.5,7.5v9.82h-73v-9.82c0-4.142-3.357-7.5-7.5-7.5s-7.5,3.358-7.5,7.5v9.82h-20   c-3.702,0-6.852,2.702-7.413,6.362l-6.432,41.886l-51.078,10.918c-2.87,0.613-5.118,2.844-5.755,5.709L37.1,340.159   c-0.118,0.534-0.178,1.079-0.178,1.625v31.719c0,4.142,3.357,7.5,7.5,7.5H383.5c4.143,0,7.5-3.358,7.5-7.5v-31.719   c0-0.546-0.06-1.091-0.178-1.625L356.139,183.878z M85.384,191.83l51.428-10.993c3.047-0.651,5.373-3.117,5.846-6.196l6.24-40.638   h130.127l6.239,40.638c0.473,3.079,2.799,5.545,5.846,6.196l51.429,10.993l31.615,142.454H53.769L85.384,191.83z M126.2,349.284   l-9.661,16.719h-11.401l9.661-16.719H126.2z M143.525,349.284h163.21l-9.661,16.719h-163.21L143.525,349.284z M51.922,349.284   h45.552l-9.661,16.719H51.922V349.284z M314.399,366.003l9.661-16.719H376v16.719H314.399z" data-original="#000000" class="active-path" data-old_color="#f1cdb3" fill="#f1cdb3"/>
	<path d="M213.961,320.038c44.388,0,80.5-36.112,80.5-80.5s-36.112-80.5-80.5-80.5s-80.5,36.112-80.5,80.5   S169.573,320.038,213.961,320.038z M213.961,174.038c36.117,0,65.5,29.383,65.5,65.5s-29.383,65.5-65.5,65.5   s-65.5-29.383-65.5-65.5S177.844,174.038,213.961,174.038z" data-original="#000000" class="active-path" data-old_color="#f1cdb3" fill="#f1cdb3"/>
	<path d="M213.961,268.091c15.744,0,28.554-12.809,28.554-28.554c0-15.745-12.81-28.554-28.554-28.554   c-15.745,0-28.555,12.809-28.555,28.554C185.406,255.282,198.216,268.091,213.961,268.091z M213.961,225.983   c7.474,0,13.554,6.08,13.554,13.554c0,7.474-6.08,13.554-13.554,13.554s-13.555-6.08-13.555-13.554   C200.406,232.064,206.487,225.983,213.961,225.983z" data-original="#000000" class="active-path" data-old_color="#f1cdb3" fill="#f1cdb3"/>
</g></g> </svg>
